<svg xmlns="http://www.w3.org/2000/svg" width="320" height="416" viewBox="0 0 320 416"><rect width="100%" height="100%" fill="#DDDDDD"/><path fill="#999999" d="M65.065 180.295h7.41v44.58h-7.41zm28.44 13.32q3.42 0 6.22 1.11 2.81 1.11 4.8 3.15 2 2.04 3.08 4.98t1.08 6.57q0 3.66-1.08 6.6t-3.08 5.01q-1.99 2.07-4.8 3.18-2.8 1.11-6.22 1.11-3.45 0-6.27-1.11t-4.82-3.18q-1.99-2.07-3.09-5.01-1.09-2.94-1.09-6.6 0-3.63 1.09-6.57 1.1-2.94 3.09-4.98 2-2.04 4.82-3.15t6.27-1.11m0 26.01q3.84 0 5.68-2.58 1.85-2.58 1.85-7.56t-1.85-7.59q-1.84-2.61-5.68-2.61-3.9 0-5.78 2.63-1.87 2.62-1.87 7.57t1.87 7.55q1.88 2.59 5.78 2.59m37.11-2.7v-5.19q-3.21.15-5.4.56-2.19.4-3.51 1.03t-1.89 1.47-.57 1.83q0 1.95 1.15 2.79 1.16.84 3.02.84 2.28 0 3.94-.82 1.67-.83 3.26-2.51m-15.66-16.17-1.32-2.37q5.31-4.86 12.78-4.86 2.7 0 4.83.89 2.13.88 3.6 2.46 1.47 1.57 2.23 3.76.77 2.19.77 4.8v19.44h-3.36q-1.05 0-1.62-.32-.57-.31-.9-1.27l-.66-2.22q-1.17 1.05-2.28 1.85-1.11.79-2.31 1.33t-2.57.83q-1.36.28-3.01.28-1.95 0-3.6-.52-1.65-.53-2.85-1.58t-1.86-2.61-.66-3.63q0-1.17.39-2.33.39-1.15 1.27-2.2.89-1.05 2.3-1.98t3.46-1.62q2.06-.69 4.79-1.12 2.73-.44 6.24-.53v-1.8q0-3.09-1.32-4.58-1.32-1.48-3.81-1.48-1.8 0-2.99.42-1.18.42-2.08.95-.9.52-1.64.94-.73.42-1.63.42-.78 0-1.32-.41-.54-.4-.87-.94m49.17 15v-13.8q-1.26-1.53-2.75-2.16-1.48-.63-3.19-.63-1.68 0-3.03.63t-2.31 1.9q-.96 1.28-1.47 3.25-.51 1.96-.51 4.63 0 2.7.43 4.58.44 1.87 1.25 3.05.81 1.19 1.98 1.71 1.17.53 2.61.53 2.31 0 3.93-.96t3.06-2.73m0-35.46h7.41v44.58h-4.53q-1.47 0-1.86-1.35l-.63-2.97q-1.86 2.13-4.28 3.45-2.41 1.32-5.62 1.32-2.52 0-4.62-1.05t-3.62-3.05q-1.51-1.99-2.34-4.93-.82-2.94-.82-6.72 0-3.42.93-6.36t2.67-5.1 4.17-3.37q2.43-1.22 5.46-1.22 2.58 0 4.41.81t3.27 2.19zm14.97 13.8h7.44v30.78h-7.44zm8.46-8.97q0 .96-.39 1.8t-1.04 1.47q-.64.63-1.51 1-.87.38-1.86.38-.96 0-1.82-.38-.85-.37-1.48-1t-1.01-1.47q-.37-.84-.37-1.8 0-.99.37-1.86.38-.87 1.01-1.5t1.48-1q.86-.38 1.82-.38.99 0 1.86.38.87.37 1.51 1 .65.63 1.04 1.5t.39 1.86m12.96 10.32.51 2.43q.93-.93 1.96-1.72 1.04-.8 2.19-1.35 1.16-.56 2.48-.88 1.32-.31 2.88-.31 2.52 0 4.47.86 1.95.85 3.25 2.4 1.31 1.54 1.98 3.69.68 2.14.68 4.72v19.59h-7.41v-19.59q0-2.82-1.29-4.36-1.29-1.55-3.93-1.55-1.92 0-3.6.87t-3.18 2.37v22.26h-7.41v-30.78h4.53q1.44 0 1.89 1.35m38.67 13.29q1.38 0 2.4-.38 1.02-.37 1.69-1.03.68-.66 1.02-1.59.35-.93.35-2.04 0-2.28-1.37-3.61-1.36-1.34-4.09-1.34t-4.1 1.34q-1.36 1.33-1.36 3.61 0 1.08.34 2.01.35.93 1.02 1.61.68.67 1.71 1.04 1.04.38 2.39.38m8.37 17.52q0-.9-.54-1.47t-1.47-.88q-.93-.32-2.18-.47-1.24-.15-2.64-.23-1.39-.07-2.88-.13-1.48-.06-2.89-.24-1.23.69-2 1.62-.76.93-.76 2.16 0 .81.4 1.51.41.71 1.29 1.22.89.51 2.3.79 1.41.29 3.45.29 2.07 0 3.57-.32 1.5-.31 2.47-.86.98-.56 1.43-1.33.45-.76.45-1.66m-1.47-31.11h8.85v2.76q0 1.32-1.59 1.62l-2.76.51q.63 1.59.63 3.48 0 2.28-.92 4.13-.91 1.84-2.53 3.13t-3.83 1.99q-2.2.71-4.75.71-.9 0-1.74-.09t-1.65-.24q-1.44.87-1.44 1.95 0 .93.85 1.37.86.43 2.27.61t3.21.23q1.8.04 3.69.19t3.69.53q1.8.37 3.21 1.18t2.26 2.21q.86 1.39.86 3.58 0 2.04-1.01 3.96-1 1.92-2.91 3.42-1.9 1.5-4.68 2.41-2.77.92-6.31.92-3.48 0-6.06-.68-2.58-.67-4.29-1.79-1.71-1.13-2.55-2.6t-.84-3.06q0-2.16 1.3-3.61 1.31-1.46 3.59-2.33-1.23-.63-1.95-1.68t-.72-2.76q0-.69.25-1.43.26-.73.75-1.45.5-.72 1.25-1.36.75-.65 1.77-1.16-2.34-1.26-3.68-3.36-1.33-2.1-1.33-4.92 0-2.28.91-4.12.92-1.85 2.55-3.15 1.64-1.31 3.87-2 2.24-.69 4.88-.69 1.98 0 3.72.41 1.74.4 3.18 1.18"/></svg>